<?xml version="1.0" standalone="no"?>
<!DOCTYPE svg PUBLIC "-//W3C//DTD SVG 20010904//EN"
 "http://www.w3.org/TR/2001/REC-SVG-20010904/DTD/svg10.dtd">
<svg version="1.0" xmlns="http://www.w3.org/2000/svg"
 width="512.000000pt" height="512.000000pt" viewBox="0 0 512.000000 512.000000"
 preserveAspectRatio="xMidYMid meet">
<metadata>
Created by potrace 1.14, written by Peter Selinger 2001-2017
</metadata>
<g transform="translate(0.000000,512.000000) scale(0.100000,-0.100000)"
fill="#000000" stroke="none">
<path d="M747 5083 c-13 -21 -41 -67 -62 -103 -38 -64 -63 -106 -101 -165 -10
-16 -24 -39 -30 -50 -6 -11 -133 -224 -282 -473 l-272 -452 0 -1818 0 -1817
24 -51 c31 -68 84 -117 147 -138 47 -15 240 -16 2398 -16 l2346 0 50 24 c64
29 96 59 126 116 l24 45 3 1827 c2 1807 2 1827 -18 1860 -11 18 -30 50 -42 72
-13 21 -27 46 -33 55 -19 31 -110 182 -120 199 -6 9 -59 98 -118 197 -60 99
-114 189 -120 200 -7 11 -31 50 -54 88 -24 37 -43 69 -43 71 0 1 -43 74 -95
161 -52 87 -95 161 -95 165 0 4 -8 14 -18 23 -17 16 -157 17 -1805 17 l-1787
0 -23 -37z m3403 -373 c11 -14 20 -29 20 -34 0 -5 11 -23 23 -40 13 -17 26
-36 28 -41 3 -8 213 -359 260 -435 5 -8 49 -82 99 -165 l89 -150 -1054 -3
c-580 -1 -1530 -1 -2110 0 l-1054 3 252 420 c139 232 259 432 268 446 l17 25
1571 0 1572 -1 19 -25z m-2806 -1586 c35 -10 85 -53 103 -87 20 -39 20 -34 27
-145 18 -285 125 -524 325 -723 295 -292 729 -389 1124 -249 416 147 694 519
723 970 7 117 31 172 91 214 35 24 52 29 103 29 52 0 68 -5 103 -29 69 -49 86
-90 85 -208 -2 -412 -215 -835 -558 -1108 -184 -147 -424 -254 -660 -294 -109
-19 -315 -24 -425 -12 -156 18 -335 72 -479 144 -83 42 -215 123 -243 148 -6
6 -44 40 -85 76 -222 195 -390 480 -452 765 -26 116 -27 125 -33 250 -5 110
-4 124 16 162 45 88 137 127 235 97z"/>
</g>
</svg>
